<svg width="1270" height="574" viewBox="0 0 1270 574" class="keymap" xmlns="http://www.w3.org/2000/svg" xmlns:xlink="http://www.w3.org/1999/xlink">
<defs>/* start glyphs */
<svg id="mdi:star">
<svg xmlns="http://www.w3.org/2000/svg" id="mdi-star" viewBox="0 0 24 24"><path d="M12,17.27L18.18,21L16.54,13.97L22,9.24L14.81,8.62L12,2L9.19,8.62L2,9.24L7.45,13.97L5.82,21L12,17.27Z" /></svg>
</svg>
</defs>/* end glyphs */
<style>/* inherit to force styles through use tags */
svg path {
    fill: inherit;
}

/* font and background color specifications */
svg.keymap {
    /*
     * ====================
     * Theme Variables
     * ====================
     */

    --logo-path: none;
    --logo-size: 12%;
    --logo-position: 49.5% 5%;

    /* === Colors === */

    --color--trans--bg: transparent;
    --color--trans--border: var(--color--material--purple-0);
    --color--trans--text--tap: var(--color--trans--border);
    --color--trans--text--shifted: var(--color--trans--text--tap);
    --color--trans--text--hold: var(--color--trans--text--tap);

    /* from acasppuccin, darkest to lightest */
    --background-secondary: rgb(24, 24, 37);
    --background-primary: rgb(30, 30, 46);
    --divider-color: rgb(49, 50, 68);
    --background-modifier-active: rgb(35, 28, 60);
    --color-accent: rgb(138, 92, 245);
    --ctp-mauve: rgb(203, 166, 247);
    --highlight: rgb(42, 40, 60);
    --text-normal: rgb(198, 208, 245);


    /*
     * ====================
     * /End Theme Variables
     * ====================
     */

    font-family: Rubik Medium,SFMono-Regular,Consolas,Liberation Mono,Menlo,monospace;
    font-size: 24px;
    font-kerning: normal;
    text-rendering: optimizeLegibility;
    fill: rgb(198, 208, 245);
    background-color: rgb();
    background-image: var(--logo-path);
    background-repeat: no-repeat;
    background-position: var(--logo-position);
    background-size: var(--logo-size) auto;
}

rect,
path {
  shape-rendering: geometricPrecision;
}

text {
    text-anchor: middle;
    dominant-baseline: middle;
    line-height: 1;

}

/* Layer labels */
text.label {
    text-anchor: start;
    paint-order: stroke;
    fill: rgb(203, 166, 247);
    dominant-baseline: text-before-edge;
    font-size: 28px;
}

/* Keys */
rect.key {
    fill: rgb(30, 30, 50);
    stroke: rgb(24, 24, 40);
    stroke-width: 0;
}
.tap {
    fill: rgb(122, 82, 204);
    font-size: 25px;
}
.hold {
    fill: rgb(138, 92, 245);
    opacity: 0.75
}
/* styling for combo tap, and key hold/shifted label text */
text.combo, text.hold, text.shifted {
    font-size: 20px;
}

text.hold {
    text-anchor: auto;
    dominant-baseline: auto;
}

/*
 * Combos
 */
rect.combo, rect.combo-separate {
    fill: rgb(35, 28, 60);
    stroke: rgb(42, 40, 60);
    stroke-width: 1;
}
path.combo {
    stroke-width: 1;
    stroke: rgb(49, 50, 68);
    stroke-dasharray: 2, 2;
    fill: none;
}
.combo.tap {
    font-size: 16px;
}

/*
 * Non-Layout Keys
 */
.keypos-0,
.keypos-1,
.keypos-2,
.keypos-3,
.keypos-4,
.keypos-5,
.keypos-6,
.keypos-7,
.keypos-8,
.keypos-9,
.keypos-10,
.keypos-11,
.keypos-12,
.keypos-24,
.keypos-36,
.keypos-47,
.keypos-48,
.keypos-49,
.keypos-50,
.keypos-51 {
    opacity: 0.5
}</style>
<g transform="translate(15, 0)" class="layer-‎">
<text x="0" y="8" class="label">‎</text>
<g transform="translate(0, 15)">
<g transform="translate(40, 72)" class="key keypos-0">
<rect rx="6" ry="6" x="-38" y="-38" width="75" height="75" class="key"/>
</g>
<g transform="translate(120, 72)" class="key keypos-1">
<rect rx="6" ry="6" x="-38" y="-38" width="75" height="75" class="key"/>
</g>
<g transform="translate(200, 56)" class="key keypos-2">
<rect rx="6" ry="6" x="-38" y="-38" width="75" height="75" class="key"/>
</g>
<g transform="translate(280, 40)" class="key keypos-3">
<rect rx="6" ry="6" x="-38" y="-38" width="75" height="75" class="key"/>
</g>
<g transform="translate(360, 64)" class="key keypos-4">
<rect rx="6" ry="6" x="-38" y="-38" width="75" height="75" class="key"/>
</g>
<g transform="translate(440, 80)" class="key keypos-5">
<rect rx="6" ry="6" x="-38" y="-38" width="75" height="75" class="key"/>
</g>
<g transform="translate(800, 80)" class="key keypos-6">
<rect rx="6" ry="6" x="-38" y="-38" width="75" height="75" class="key"/>
</g>
<g transform="translate(880, 64)" class="key keypos-7">
<rect rx="6" ry="6" x="-38" y="-38" width="75" height="75" class="key"/>
</g>
<g transform="translate(960, 40)" class="key keypos-8">
<rect rx="6" ry="6" x="-38" y="-38" width="75" height="75" class="key"/>
</g>
<g transform="translate(1040, 56)" class="key keypos-9">
<rect rx="6" ry="6" x="-38" y="-38" width="75" height="75" class="key"/>
</g>
<g transform="translate(1120, 72)" class="key keypos-10">
<rect rx="6" ry="6" x="-38" y="-38" width="75" height="75" class="key"/>
</g>
<g transform="translate(1200, 72)" class="key keypos-11">
<rect rx="6" ry="6" x="-38" y="-38" width="75" height="75" class="key"/>
</g>
<g transform="translate(40, 152)" class="key keypos-12">
<rect rx="6" ry="6" x="-38" y="-38" width="75" height="75" class="key"/>
</g>
<g transform="translate(120, 152)" class="key keypos-13">
<rect rx="6" ry="6" x="-38" y="-38" width="75" height="75" class="key"/>
<text x="0" y="0" class="key tap">W</text>
</g>
<g transform="translate(200, 136)" class="key keypos-14">
<rect rx="6" ry="6" x="-38" y="-38" width="75" height="75" class="key"/>
<text x="0" y="0" class="key tap">C</text>
</g>
<g transform="translate(280, 120)" class="key keypos-15">
<rect rx="6" ry="6" x="-38" y="-38" width="75" height="75" class="key"/>
<text x="0" y="0" class="key tap">M</text>
</g>
<g transform="translate(360, 144)" class="key keypos-16">
<rect rx="6" ry="6" x="-38" y="-38" width="75" height="75" class="key"/>
<text x="0" y="0" class="key tap">P</text>
</g>
<g transform="translate(440, 160)" class="key keypos-17">
<rect rx="6" ry="6" x="-38" y="-38" width="75" height="75" class="key"/>
<text x="0" y="0" class="key tap">B</text>
</g>
<g transform="translate(800, 160)" class="key keypos-18">
<rect rx="6" ry="6" x="-38" y="-38" width="75" height="75" class="key"/>
<text x="0" y="0" class="key tap">X</text>
</g>
<g transform="translate(880, 144)" class="key keypos-19">
<rect rx="6" ry="6" x="-38" y="-38" width="75" height="75" class="key"/>
<text x="0" y="0" class="key tap">L</text>
</g>
<g transform="translate(960, 120)" class="key keypos-20">
<rect rx="6" ry="6" x="-38" y="-38" width="75" height="75" class="key"/>
<text x="0" y="0" class="key tap">O</text>
</g>
<g transform="translate(1040, 136)" class="key keypos-21">
<rect rx="6" ry="6" x="-38" y="-38" width="75" height="75" class="key"/>
<text x="0" y="0" class="key tap">U</text>
</g>
<g transform="translate(1120, 152)" class="key keypos-22">
<rect rx="6" ry="6" x="-38" y="-38" width="75" height="75" class="key"/>
<text x="0" y="0" class="key tap">J</text>
</g>
<g transform="translate(1200, 152)" class="key keypos-23">
<rect rx="6" ry="6" x="-38" y="-38" width="75" height="75" class="key"/>
<text x="0" y="0" class="key tap">-</text>
</g>
<g transform="translate(40, 232)" class="key keypos-24">
<rect rx="6" ry="6" x="-38" y="-38" width="75" height="75" class="key"/>
</g>
<g transform="translate(120, 232)" class="key keypos-25">
<rect rx="6" ry="6" x="-38" y="-38" width="75" height="75" class="key"/>
<text x="0" y="0" class="key tap">R</text>
</g>
<g transform="translate(200, 216)" class="key keypos-26">
<rect rx="6" ry="6" x="-38" y="-38" width="75" height="75" class="key"/>
<text x="0" y="0" class="key tap">S</text>
</g>
<g transform="translate(280, 200)" class="key keypos-27">
<rect rx="6" ry="6" x="-38" y="-38" width="75" height="75" class="key"/>
<text x="0" y="0" class="key tap">T</text>
</g>
<g transform="translate(360, 224)" class="key keypos-28">
<rect rx="6" ry="6" x="-38" y="-38" width="75" height="75" class="key"/>
<text x="0" y="0" class="key tap">H</text>
</g>
<g transform="translate(440, 240)" class="key keypos-29">
<rect rx="6" ry="6" x="-38" y="-38" width="75" height="75" class="key"/>
<text x="0" y="0" class="key tap">F</text>
</g>
<g transform="translate(800, 240)" class="key keypos-30">
<rect rx="6" ry="6" x="-38" y="-38" width="75" height="75" class="key"/>
<text x="0" y="0" class="key tap">Y</text>
</g>
<g transform="translate(880, 224)" class="key keypos-31">
<rect rx="6" ry="6" x="-38" y="-38" width="75" height="75" class="key"/>
<text x="0" y="0" class="key tap">N</text>
</g>
<g transform="translate(960, 200)" class="key keypos-32">
<rect rx="6" ry="6" x="-38" y="-38" width="75" height="75" class="key"/>
<text x="0" y="0" class="key tap">A</text>
</g>
<g transform="translate(1040, 216)" class="key keypos-33">
<rect rx="6" ry="6" x="-38" y="-38" width="75" height="75" class="key"/>
<text x="0" y="0" class="key tap">E</text>
</g>
<g transform="translate(1120, 232)" class="key keypos-34">
<rect rx="6" ry="6" x="-38" y="-38" width="75" height="75" class="key"/>
<text x="0" y="0" class="key tap">I</text>
</g>
<g transform="translate(1200, 232)" class="key keypos-35">
<rect rx="6" ry="6" x="-38" y="-38" width="75" height="75" class="key"/>
<text x="0" y="0" class="key tap">,</text>
</g>
<g transform="translate(40, 312)" class="key keypos-36">
<rect rx="6" ry="6" x="-38" y="-38" width="75" height="75" class="key"/>
</g>
<g transform="translate(120, 312)" class="key keypos-37">
<rect rx="6" ry="6" x="-38" y="-38" width="75" height="75" class="key"/>
<text x="0" y="0" class="key tap">Q</text>
</g>
<g transform="translate(200, 296)" class="key keypos-38">
<rect rx="6" ry="6" x="-38" y="-38" width="75" height="75" class="key"/>
<text x="0" y="0" class="key tap">V</text>
</g>
<g transform="translate(280, 280)" class="key keypos-39">
<rect rx="6" ry="6" x="-38" y="-38" width="75" height="75" class="key"/>
<text x="0" y="0" class="key tap">G</text>
</g>
<g transform="translate(360, 304)" class="key keypos-40">
<rect rx="6" ry="6" x="-38" y="-38" width="75" height="75" class="key"/>
<text x="0" y="0" class="key tap">D</text>
</g>
<g transform="translate(440, 320)" class="key keypos-41">
<rect rx="6" ry="6" x="-38" y="-38" width="75" height="75" class="key"/>
<text x="0" y="0" class="key tap">K</text>
</g>
<g transform="translate(800, 320)" class="key keypos-42">
<rect rx="6" ry="6" x="-38" y="-38" width="75" height="75" class="key"/>
<text x="0" y="0" class="key tap">Z</text>
</g>
<g transform="translate(880, 304)" class="key keypos-43">
<rect rx="6" ry="6" x="-38" y="-38" width="75" height="75" class="key"/>
<use href="#mdi:star" xlink:href="#mdi:star" x="-14" y="-14" height="28" width="28.0" class="key tap glyph mdi:star"/>
</g>
<g transform="translate(960, 280)" class="key keypos-44">
<rect rx="6" ry="6" x="-38" y="-38" width="75" height="75" class="key"/>
<text x="0" y="0" class="key tap">&#x27;</text>
</g>
<g transform="translate(1040, 296)" class="key keypos-45">
<rect rx="6" ry="6" x="-38" y="-38" width="75" height="75" class="key"/>
<text x="0" y="0" class="key tap">;</text>
</g>
<g transform="translate(1120, 312)" class="key keypos-46">
<rect rx="6" ry="6" x="-38" y="-38" width="75" height="75" class="key"/>
<text x="0" y="0" class="key tap">.</text>
</g>
<g transform="translate(1200, 312)" class="key keypos-47">
<rect rx="6" ry="6" x="-38" y="-38" width="75" height="75" class="key"/>
</g>
<g transform="translate(442, 415) rotate(30.0)" class="key keypos-48">
<rect rx="6" ry="6" x="-38" y="-38" width="75" height="75" class="key"/>
</g>
<g transform="translate(498, 476) rotate(30.0)" class="key keypos-49">
<rect rx="6" ry="6" x="-38" y="-54" width="75" height="107" class="key"/>
</g>
<g transform="translate(742, 476) rotate(-30.0)" class="key keypos-50">
<rect rx="6" ry="6" x="-38" y="-54" width="75" height="107" class="key"/>
</g>
<g transform="translate(798, 415) rotate(-30.0)" class="key keypos-51">
<rect rx="6" ry="6" x="-38" y="-38" width="75" height="75" class="key"/>
</g>
</g>
</g>
</svg>
